<svg width="36" height="36" viewBox="0 0 36 36" fill="none" xmlns="http://www.w3.org/2000/svg">
<g clip-path="url(#clip0_6198_8490)">
<rect width="36" height="36" fill="white"/>
<path d="M6.50316e-06 33.1527C-0.000428992 33.2636 0.0210123 33.3736 0.0631041 33.4762C0.105196 33.5789 0.167113 33.6722 0.245313 33.751C0.323513 33.8297 0.416464 33.8922 0.518848 33.935C0.621232 33.9777 0.731041 33.9999 0.841996 34.0002H30.3144C30.4252 33.9999 30.535 33.9778 30.6373 33.9351C30.7396 33.8924 30.8325 33.8299 30.9107 33.7514C30.9888 33.6728 31.0508 33.5795 31.0929 33.477C31.1351 33.3745 31.1567 33.2646 31.1564 33.1538V12.5918H6.50316e-06V33.1527Z" fill="#E6E6E6"/>
<path d="M30.3144 6.93945H0.841994C0.731086 6.93974 0.621321 6.96188 0.518973 7.00461C0.416626 7.04734 0.3237 7.10981 0.245507 7.18847C0.167314 7.26712 0.105385 7.36041 0.063261 7.46301C0.0211366 7.56561 -0.000358306 7.6755 4.51766e-06 7.78641V12.5934H31.1569V7.78641C31.1572 7.67555 31.1357 7.56571 31.0935 7.46318C31.0513 7.36065 30.9894 7.26742 30.9112 7.18882C30.833 7.11023 30.7401 7.0478 30.6378 7.00511C30.5355 6.96242 30.4258 6.94029 30.3149 6.94L30.3144 6.93945Z" fill="#CDCDCD"/>
<path d="M4.91272 28.2141C4.91213 28.4375 5.00014 28.652 5.15744 28.8107C5.31475 28.9693 5.52854 29.0591 5.75195 29.0605H35.2276C35.3385 29.0602 35.4482 29.038 35.5505 28.9954C35.6528 28.9527 35.7457 28.8902 35.8239 28.8116C35.9021 28.733 35.9641 28.6398 36.0062 28.5373C36.0484 28.4348 36.0699 28.3249 36.0696 28.2141V7.6543H4.91272V28.2141Z" fill="#5AB8EC"/>
<path d="M35.2276 2H5.75472C5.64372 2.00029 5.53386 2.02247 5.43144 2.06526C5.32902 2.10806 5.23605 2.17063 5.15784 2.2494C5.07963 2.32818 5.01773 2.4216 4.97567 2.52432C4.93361 2.62705 4.91222 2.73706 4.91273 2.84806V7.65501H36.0691V2.84806C36.0696 2.7371 36.0482 2.62714 36.0062 2.52445C35.9642 2.42176 35.9023 2.32836 35.8242 2.2496C35.746 2.17083 35.6531 2.10825 35.5508 2.06542C35.4484 2.02259 35.3386 2.00036 35.2276 2Z" fill="#30ADE0"/>
<path d="M10.634 5.28867H8.38445C8.23013 5.28867 8.08214 5.22737 7.97303 5.11825C7.86391 5.00914 7.80261 4.86114 7.80261 4.70683C7.80261 4.55252 7.86391 4.40453 7.97303 4.29541C8.08214 4.1863 8.23013 4.125 8.38445 4.125H10.634C10.7883 4.125 10.9363 4.1863 11.0454 4.29541C11.1545 4.40453 11.2158 4.55252 11.2158 4.70683C11.2158 4.86114 11.1545 5.00914 11.0454 5.11825C10.9363 5.22737 10.7883 5.28867 10.634 5.28867Z" fill="white"/>
<path d="M15.7568 5.28867H13.5072C13.3529 5.28867 13.2049 5.22737 13.0958 5.11825C12.9867 5.00914 12.9254 4.86114 12.9254 4.70683C12.9254 4.55252 12.9867 4.40453 13.0958 4.29541C13.2049 4.1863 13.3529 4.125 13.5072 4.125H15.7568C15.9111 4.125 16.0591 4.1863 16.1682 4.29541C16.2773 4.40453 16.3386 4.55252 16.3386 4.70683C16.3386 4.86114 16.2773 5.00914 16.1682 5.11825C16.0591 5.22737 15.9111 5.28867 15.7568 5.28867Z" fill="white"/>
<path d="M11.1882 18.4297L16.9266 21.4026V20.2439L12.5103 18.0187L16.9293 15.7896V14.6309L11.191 17.6038L11.1882 18.4297Z" fill="white"/>
<path d="M18.2024 21.7772H19.3125L22.7114 12.9297H21.5891L18.2024 21.7772Z" fill="white"/>
<path d="M23.958 14.6348V15.7896L28.4107 18.0165L23.958 20.2434V21.4021L29.6963 18.4414V17.5955L23.958 14.6348Z" fill="white"/>
</g>
<defs>
<clipPath id="clip0_6198_8490">
<rect width="36" height="36" fill="white"/>
</clipPath>
</defs>
</svg>
