<svg width="24" height="24" viewBox="0 0 24 24" fill="none" xmlns="http://www.w3.org/2000/svg">
<g clip-path="url(#clip0_1675_58292)">
<path d="M16 19L21.512 14.061C21.6645 13.9296 21.7869 13.7668 21.8707 13.5838C21.9546 13.4008 21.998 13.2018 21.998 13.0005C21.998 12.7992 21.9546 12.6002 21.8707 12.4172C21.7869 12.2342 21.6645 12.0714 21.512 11.94L16 7M13.5 4L10.5 21M8 19L2.488 14.061C2.3355 13.9296 2.21314 13.7668 2.12926 13.5838C2.04539 13.4008 2.00197 13.2018 2.00197 13.0005C2.00197 12.7992 2.04539 12.6002 2.12926 12.4172C2.21314 12.2342 2.3355 12.0714 2.488 11.94L8 7" stroke="#454545" stroke-width="1.5" stroke-miterlimit="10" stroke-linecap="round" stroke-linejoin="round"/>
</g>
<defs>
<clipPath id="clip0_1675_58292">
<rect width="24" height="24" fill="white"/>
</clipPath>
</defs>
</svg>
