<svg width="36" height="36" viewBox="0 0 36 36" fill="none" xmlns="http://www.w3.org/2000/svg">
<rect width="36" height="36" fill="white"/>
<path d="M34 2H2V34H34V2Z" fill="white"/>
<path d="M34 2H2V34H34V2Z" fill="white"/>
<path d="M18 2H2V18H18V2Z" fill="#9FFF79" fill-opacity="0.57"/>
<path d="M34 2H18V18H34V2Z" fill="#6DAC48" fill-opacity="0.58"/>
<path d="M18 18H2V34H18V18Z" fill="#D3F4FE"/>
<path d="M34 18H18V34H34V18Z" fill="#FFCB72"/>
<path d="M31.8149 29.199C31.6454 29.2638 31.458 29.2642 31.2882 29.2002C31.1184 29.1361 30.978 29.012 30.8937 28.8513L29.2238 26.541L28.9814 26.221L27.0314 28.8586C26.9523 29.012 26.8202 29.1314 26.6596 29.1946C26.4991 29.2577 26.321 29.2603 26.1586 29.2019L28.6556 25.8501L26.3346 22.8227C26.5016 22.762 26.6843 22.7607 26.8521 22.8189C27.0199 22.8772 27.1625 22.9916 27.2558 23.1427L28.9877 25.4816L30.7332 23.1544C30.8128 23.004 30.9449 22.8882 31.1045 22.829C31.264 22.7698 31.4397 22.7713 31.5981 22.8334L30.6958 24.0271L29.4745 25.6174C29.442 25.6487 29.4163 25.6865 29.399 25.7282C29.3817 25.7699 29.3732 25.8147 29.374 25.8599C29.3747 25.9051 29.3848 25.9496 29.4035 25.9907C29.4222 26.0318 29.4492 26.0686 29.4827 26.0988L31.8149 29.199ZM20.1872 25.7944L20.3914 24.7897C20.4994 24.3378 20.7182 23.9199 21.0281 23.5737C21.3379 23.2274 21.729 22.9637 22.1662 22.8063C22.6034 22.6488 23.0728 22.6027 23.5323 22.6719C23.9918 22.7411 24.4268 22.9236 24.7981 23.2028C25.7164 23.9253 25.9448 24.9483 25.8992 26.0925H20.722C20.6444 28.1531 22.1281 29.3973 24.019 28.7626C24.3265 28.6532 24.6019 28.4688 24.8201 28.2261C25.0383 27.9833 25.1924 27.6899 25.2684 27.3725C25.3654 27.0467 25.5317 26.9958 25.8381 27.0889C25.7885 27.4826 25.6497 27.8598 25.4325 28.1919C25.2152 28.524 24.9252 28.8023 24.5843 29.0055C24.0219 29.3129 23.3767 29.4346 22.741 29.3531C22.1052 29.2716 21.5116 28.9911 21.0449 28.5517C20.5827 28.0367 20.3033 27.3837 20.2498 26.6937C20.2352 26.5788 20.2061 26.4693 20.1843 26.3592C20.1863 26.1711 20.1872 25.9831 20.1872 25.7953V25.7944ZM20.7317 25.6562H25.41C25.3795 24.1662 24.451 23.1059 23.1836 23.0986C21.7916 23.0874 20.7918 24.1211 20.7317 25.6562Z" fill="black"/>
<path d="M9.49058 3.92993C9.64608 3.84269 9.82138 3.79688 9.99967 3.79688C10.178 3.79688 10.3533 3.84269 10.5088 3.92993C12.0551 4.80265 13.6016 5.67619 15.1483 6.55053C15.294 6.6335 15.4152 6.75335 15.4999 6.89803C15.5846 7.04271 15.6297 7.20714 15.6307 7.37478V12.6291C15.6279 12.8028 15.5783 12.9726 15.4871 13.1205C15.3959 13.2684 15.2664 13.3889 15.1124 13.4693C13.5709 14.3385 12.0299 15.2078 10.4894 16.0773C10.3313 16.1648 10.1526 16.2082 9.97201 16.2032C9.79141 16.1982 9.61545 16.1448 9.46246 16.0487C9.00024 15.7808 8.53785 15.5134 8.07531 15.2468C7.97381 15.2011 7.88273 15.1351 7.80767 15.0528C7.86682 14.9733 7.97204 14.9636 8.05785 14.9287C8.24788 14.8608 8.43115 14.7752 8.60525 14.6732C8.62717 14.6603 8.65245 14.6542 8.67786 14.6557C8.70326 14.6573 8.72762 14.6664 8.74779 14.6819C9.14294 14.9084 9.5347 15.1416 9.93131 15.366C10.0157 15.4145 10.1015 15.35 10.1737 15.3098C11.6865 14.4549 13.1995 13.601 14.7129 12.7484C14.7395 12.735 14.7615 12.714 14.7762 12.6881C14.7909 12.6622 14.7975 12.6326 14.7953 12.6029C14.7953 10.8688 14.7953 9.13429 14.7953 7.3995C14.7981 7.36569 14.7903 7.33185 14.7729 7.30272C14.7555 7.27359 14.7294 7.25063 14.6983 7.23708C13.1607 6.37114 11.6241 5.50585 10.0884 4.6412C10.0618 4.62296 10.0303 4.6132 9.99797 4.6132C9.9657 4.6132 9.93418 4.62296 9.90755 4.6412C8.3722 5.50585 6.83684 6.37162 5.30149 7.23853C5.27038 7.25179 5.24425 7.27455 5.22683 7.30354C5.20942 7.33254 5.20161 7.36629 5.20452 7.39999C5.20452 9.13413 5.20452 10.8686 5.20452 12.6034C5.20171 12.6333 5.20822 12.6633 5.22315 12.6893C5.23808 12.7154 5.2607 12.7362 5.28791 12.7488C5.69777 12.9812 6.10779 13.2128 6.51798 13.4436C6.63178 13.5139 6.75914 13.5594 6.89173 13.5771C7.02432 13.5948 7.15916 13.5844 7.28743 13.5464C7.39867 13.5045 7.49441 13.4295 7.56177 13.3316C7.62912 13.2336 7.66485 13.1174 7.66416 12.9985C7.66416 11.2744 7.66416 9.54981 7.66416 7.82617C7.66367 7.80752 7.66722 7.78898 7.67454 7.77181C7.68186 7.75465 7.6928 7.73927 7.7066 7.72671C7.7204 7.71415 7.73674 7.70471 7.75452 7.69903C7.7723 7.69335 7.79109 7.69157 7.80961 7.69381C8.00646 7.69381 8.20379 7.69138 8.40064 7.69381C8.41982 7.69466 8.4386 7.69956 8.45575 7.70817C8.47291 7.71679 8.48805 7.72894 8.50018 7.74382C8.51231 7.75869 8.52116 7.77597 8.52615 7.79451C8.53114 7.81304 8.53215 7.83242 8.52913 7.85138C8.52913 9.58665 8.52913 11.3214 8.52913 13.0567C8.54223 13.2924 8.49188 13.5273 8.38332 13.7369C8.27476 13.9465 8.11197 14.1232 7.91191 14.2485C7.64465 14.3725 7.35222 14.4326 7.05772 14.4242C6.76321 14.4158 6.47469 14.339 6.21494 14.2C5.76452 13.975 5.33398 13.7098 4.89131 13.4688C4.73614 13.3894 4.60544 13.2693 4.51314 13.1214C4.42084 12.9735 4.3704 12.8034 4.36719 12.6291V7.37284C4.36864 7.20197 4.41581 7.03461 4.5038 6.88813C4.59179 6.74165 4.71739 6.6214 4.86755 6.53987L9.49058 3.92993Z" fill="#8CC84B"/>
<path d="M10.8351 7.5712C11.5162 7.48304 12.2082 7.58892 12.8318 7.87665C13.0576 8.01147 13.2444 8.20295 13.3735 8.43214C13.5026 8.66134 13.5695 8.92028 13.5678 9.18332C13.559 9.21621 13.5387 9.24485 13.5106 9.26399C13.4824 9.28314 13.4483 9.2915 13.4145 9.28756C13.2206 9.28756 13.0267 9.28999 12.8293 9.28756C12.7919 9.28518 12.7568 9.26896 12.7307 9.24207C12.7046 9.21518 12.6895 9.17955 12.6882 9.14211C12.6662 9.01469 12.6166 8.8936 12.543 8.78726C12.4694 8.68093 12.3735 8.5919 12.2621 8.52635C11.8911 8.379 11.4905 8.32168 11.0931 8.35908C10.8002 8.34996 10.5106 8.42213 10.2562 8.56756C10.1686 8.63548 10.1044 8.72916 10.0728 8.83544C10.0411 8.94171 10.0435 9.05524 10.0798 9.16005C10.1423 9.3089 10.3144 9.3569 10.455 9.40247C11.2652 9.61435 12.1234 9.59302 12.9181 9.87181C13.0886 9.9192 13.2461 10.005 13.3784 10.1227C13.5107 10.2403 13.6142 10.3867 13.6812 10.5506C13.7608 10.7832 13.7801 11.0322 13.7371 11.2742C13.6941 11.5163 13.5903 11.7434 13.4354 11.9344C13.1553 12.2251 12.7913 12.4213 12.3944 12.4953C11.8774 12.6003 11.3471 12.6229 10.823 12.5622C10.3201 12.5334 9.83785 12.352 9.44072 12.042C9.28336 11.8975 9.15986 11.7199 9.07906 11.5221C8.99826 11.3243 8.96216 11.1111 8.97333 10.8977C8.97525 10.8806 8.98055 10.864 8.98892 10.8489C8.99728 10.8338 9.00854 10.8205 9.02206 10.8098C9.03558 10.7991 9.05108 10.7911 9.06768 10.7864C9.08428 10.7817 9.10165 10.7803 9.11878 10.7824C9.31515 10.7824 9.51151 10.7824 9.70787 10.7824C9.72608 10.782 9.74418 10.7852 9.76112 10.7919C9.77807 10.7985 9.79353 10.8085 9.80661 10.8211C9.81969 10.8338 9.83012 10.8489 9.83731 10.8657C9.84449 10.8824 9.84829 10.9004 9.84848 10.9186C9.85805 11.0402 9.89246 11.1586 9.94958 11.2665C10.0067 11.3743 10.0853 11.4693 10.1806 11.5455C10.6013 11.7526 11.0715 11.8382 11.5382 11.7928C11.9286 11.8226 12.3183 11.7274 12.6509 11.5208C12.7275 11.446 12.7833 11.3524 12.8126 11.2495C12.842 11.1465 12.8439 11.0376 12.8182 10.9336C12.7697 10.76 12.5888 10.6796 12.4332 10.6267C11.6337 10.3736 10.7658 10.4657 9.97357 10.1797C9.80743 10.131 9.65381 10.0469 9.52331 9.93319C9.39282 9.81944 9.28855 9.67873 9.21769 9.52077C9.1262 9.28472 9.10295 9.02768 9.15063 8.77905C9.1983 8.53041 9.31495 8.30019 9.48727 8.11472C9.86173 7.78419 10.3385 7.59262 10.8376 7.57217L10.8351 7.5712Z" fill="#8CC84B"/>
<path d="M25.9623 3.83008L26.2934 4.45214C26.3654 4.56441 26.4493 4.66861 26.5436 4.76293C26.8217 5.03798 27.0809 5.33149 27.3194 5.64147C27.8664 6.37549 28.277 7.20189 28.5315 8.08123C28.694 8.61843 28.7804 9.17579 28.788 9.73699C28.8123 10.5343 28.6731 11.3282 28.3789 12.0696C28.0847 12.8111 27.6418 13.4845 27.0774 14.0483C26.8889 14.2379 26.6852 14.4119 26.4685 14.5685C26.3536 14.5685 26.2993 14.4803 26.2522 14.3993C26.1662 14.2496 26.1089 14.0852 26.083 13.9144C26.038 13.7128 26.0197 13.5061 26.0287 13.2997V13.2027C26.021 13.1833 25.9196 3.87759 25.9623 3.83008Z" fill="#599636"/>
<path d="M25.9603 3.81026C25.9467 3.78311 25.9332 3.80347 25.9196 3.81705C25.9219 3.95024 25.8817 4.08071 25.8047 4.18941C25.7177 4.29985 25.6179 4.39961 25.5075 4.48662C24.9135 5.00977 24.4205 5.63736 24.0529 6.33826C23.5615 7.27629 23.276 8.30842 23.2156 9.36565C23.2202 10.0834 23.3014 10.7985 23.458 11.499C23.7942 12.5155 24.3773 13.4327 25.155 14.1686C25.3461 14.3505 25.5468 14.522 25.7562 14.6825C25.8173 14.6825 25.8236 14.6282 25.8376 14.5855C25.8644 14.4992 25.8848 14.4111 25.8987 14.3218L26.0345 13.3084L25.9603 3.81026Z" fill="#6CAC48"/>
<path d="M26.291 14.982C26.313 14.8328 26.3711 14.6914 26.4602 14.5698C26.3806 14.5322 26.3145 14.4709 26.2711 14.3943C26.2303 14.3234 26.1965 14.2487 26.1703 14.1713C26.0896 13.8868 26.042 13.594 26.0282 13.2986V13.123C25.9977 13.2169 25.9839 13.3153 25.9875 13.414C25.9678 13.7205 25.9271 14.0254 25.8658 14.3264C25.857 14.4504 25.8198 14.5706 25.7572 14.678C25.7565 14.6944 25.7588 14.7108 25.764 14.7264C25.8726 15.0816 25.9316 15.45 25.9395 15.8212V15.957C25.9395 16.1189 25.9327 16.085 26.0675 16.1393C26.127 16.1529 26.1841 16.1756 26.2367 16.2067C26.2774 16.2067 26.2852 16.1727 26.2852 16.1456L26.2648 15.9226V15.3005C26.2635 15.1939 26.2726 15.0873 26.292 14.9824L26.291 14.982Z" fill="#C2BFBF"/>
<path d="M16.4057 26.0031C16.4057 25.1541 15.343 24.3502 13.7134 23.8513C14.0896 22.1902 13.9223 20.869 13.1859 20.4457C13.0073 20.3458 12.8052 20.2956 12.6006 20.3003V20.8821C12.7041 20.8789 12.8066 20.9022 12.8984 20.95C13.2537 21.1536 13.4074 21.9294 13.2862 22.9267C13.2576 23.172 13.2106 23.4309 13.1529 23.6947C12.6077 23.5631 12.0544 23.4678 11.4967 23.4096C11.1639 22.9507 10.8009 22.5145 10.4101 22.1039C11.2615 21.3126 12.0586 20.8792 12.6036 20.8792V20.2969C11.8855 20.2969 10.9454 20.8089 9.99459 21.6966C9.0438 20.8137 8.10368 20.3075 7.38562 20.3075V20.8894C7.92623 20.8894 8.72817 21.3204 9.57908 22.1063C9.19007 22.5156 8.82964 22.951 8.50029 23.4096C7.94064 23.4668 7.38561 23.5628 6.8392 23.6966C6.77908 23.4353 6.73495 23.1822 6.70344 22.9393C6.58077 21.9415 6.73204 21.1662 7.08453 20.9597C7.17666 20.9105 7.28033 20.8871 7.38465 20.8918V20.31C7.17855 20.3053 6.97492 20.3555 6.79459 20.4554C6.06053 20.8787 5.89617 22.1975 6.27483 23.8528C4.65059 24.3541 3.59265 25.156 3.59265 26.0021C3.59265 26.8481 4.65544 27.6549 6.28502 28.1538C5.90878 29.8149 6.07605 31.1361 6.81253 31.5594C6.99187 31.6596 7.1948 31.7098 7.40016 31.7049C8.11823 31.7049 9.05835 31.1929 10.0091 30.3051C10.9599 31.188 11.9 31.6942 12.6181 31.6942C12.8242 31.6988 13.0278 31.6487 13.2082 31.5488C13.9422 31.1255 14.1066 29.8067 13.7279 28.1509C15.3483 27.6535 16.4057 26.8491 16.4057 26.0031ZM13.0055 24.261C12.9085 24.598 12.7888 24.9451 12.653 25.2928C12.5459 25.0838 12.4339 24.8748 12.3107 24.6658C12.1876 24.4569 12.0625 24.2532 11.9345 24.0549C12.3059 24.1097 12.6632 24.1757 13.0055 24.261ZM11.8094 27.0421C11.6057 27.3946 11.3968 27.7291 11.1791 28.0399C10.7912 28.0738 10.3956 28.0923 9.99847 28.0923C9.60138 28.0923 9.20962 28.0738 8.82319 28.0438C8.60631 27.7332 8.39621 27.4023 8.1929 27.0513C7.99443 26.7093 7.81342 26.3628 7.64986 26.0118C7.8118 25.6617 7.99459 25.3117 8.19047 24.9698C8.39411 24.6174 8.60308 24.2828 8.82077 23.972C9.20865 23.9381 9.60429 23.9197 10.0014 23.9197C10.3985 23.9197 10.7902 23.9381 11.1767 23.9681C11.3935 24.2788 11.6036 24.6096 11.807 24.9606C12.0054 25.3026 12.1864 25.6491 12.35 26.0001C12.1856 26.3502 12.0053 26.7003 11.8094 27.0421ZM12.653 26.7027C12.7941 27.0528 12.9144 27.4028 13.0133 27.7422C12.671 27.8256 12.3107 27.8964 11.9374 27.9512C12.0654 27.75 12.1934 27.5439 12.3136 27.332C12.4339 27.1201 12.5459 26.9117 12.653 26.7027ZM10.0048 29.4891C9.74817 29.2232 9.50542 28.9442 9.2775 28.6532C9.51265 28.6639 9.75266 28.6717 9.99556 28.6717C10.2385 28.6717 10.4838 28.6663 10.7228 28.6532C10.4987 28.9448 10.259 29.2235 10.0048 29.4891ZM8.06199 27.9507C7.69108 27.8959 7.33471 27.828 6.99144 27.7441C7.08841 27.4072 7.20817 27.06 7.34392 26.7124C7.45108 26.9214 7.56308 27.1303 7.68623 27.3393C7.80938 27.5483 7.93399 27.7524 8.06199 27.9507ZM9.99168 22.516C10.2483 22.782 10.491 23.061 10.719 23.3519C10.4838 23.3412 10.2438 23.3335 10.0009 23.3335C9.75798 23.3335 9.51265 23.3388 9.27362 23.3519C9.49837 23.0607 9.73872 22.7818 9.99362 22.5165L9.99168 22.516ZM8.05908 24.0545C7.93108 24.2557 7.80308 24.4617 7.68284 24.6736C7.56259 24.8855 7.45059 25.0915 7.34344 25.3005C7.20235 24.9505 7.0821 24.6004 6.98319 24.261C7.32695 24.18 7.68574 24.1097 8.05956 24.0549L8.05908 24.0545ZM5.69544 27.3243C4.77084 26.9301 4.17302 26.4128 4.17302 26.0031C4.17302 25.5934 4.77084 25.0736 5.69544 24.6818C5.91993 24.5849 6.16574 24.4991 6.41883 24.4181C6.57862 24.9608 6.77495 25.4921 7.00647 26.0084C6.77675 26.5221 6.58236 27.0508 6.42465 27.5909C6.16623 27.51 5.92041 27.4212 5.6935 27.3248L5.69544 27.3243ZM7.1015 31.0576C6.74611 30.854 6.59241 30.0782 6.71362 29.0809C6.74223 28.8355 6.78926 28.5766 6.84696 28.3129C7.39276 28.4444 7.94671 28.5395 8.50514 28.5975C8.83787 29.0564 9.20085 29.4926 9.59168 29.9032C8.74029 30.6945 7.9432 31.1279 7.39823 31.1279C7.29473 31.129 7.19259 31.1044 7.10102 31.0561L7.1015 31.0576ZM13.2959 29.0697C13.4186 30.0675 13.2673 30.8428 12.9148 31.0494C12.8227 31.0985 12.719 31.122 12.6147 31.1172C12.0741 31.1172 11.2722 30.6862 10.4213 29.9003C10.8092 29.4898 11.1685 29.0533 11.4967 28.5936C12.0563 28.5364 12.6113 28.4404 13.1577 28.3066C13.217 28.5572 13.263 28.8108 13.2954 29.0663L13.2959 29.0697ZM14.3015 27.3277C14.077 27.4246 13.8312 27.5104 13.5781 27.5914C13.4183 27.0487 13.222 26.5174 12.9905 26.0011C13.2202 25.4875 13.4146 24.9587 13.5723 24.4186C13.8307 24.4995 14.0765 24.5883 14.3063 24.6848C15.231 25.0789 15.8288 25.5963 15.8288 26.006C15.8288 26.4157 15.2251 26.9325 14.301 27.3243L14.3015 27.3277Z" fill="#61DAFB"/>
<path d="M9.99774 27.196C10.657 27.196 11.1914 26.6616 11.1914 26.0023C11.1914 25.343 10.657 24.8086 9.99774 24.8086C9.33848 24.8086 8.80405 25.343 8.80405 26.0023C8.80405 26.6616 9.33848 27.196 9.99774 27.196Z" fill="#61DAFB"/>
</svg>
