<svg width="36" height="36" viewBox="0 0 36 36" fill="none" xmlns="http://www.w3.org/2000/svg">
<g clip-path="url(#clip0_5057_29505)">
<rect width="36" height="36" fill="white"/>
<path d="M36 0H0V35.7573H36V0Z" fill="white"/>
<path d="M36 0H0V35.7573H36V0Z" fill="white"/>
<path d="M26.8477 28.3889H26.7114V28.313H27.079V28.3889H26.9432V28.7681H26.8477V28.3889ZM27.5808 28.4084L27.4456 28.7671H27.3839L27.2497 28.4084V28.7671H27.1597V28.3125H27.2923L27.4166 28.6343L27.541 28.3125H27.673V28.7671H27.5852L27.5808 28.4084Z" fill="#E76F00"/>
<path d="M14.6244 19.096C14.6244 19.096 13.6742 19.6449 15.3002 19.8307C17.015 20.0703 18.7594 19.9968 20.4477 19.614C20.8839 19.8732 21.3415 20.095 21.8157 20.2771C16.9491 22.3489 10.8018 20.1574 14.6244 19.096ZM14.0293 16.3926C14.0293 16.3926 12.964 17.176 14.5911 17.3434C16.8075 17.6051 19.0522 17.498 21.2331 17.0265C21.5279 17.3005 21.8762 17.5114 22.2564 17.6463C16.3726 19.355 9.82003 17.7812 14.0293 16.3926Z" fill="#5382A1"/>
<path d="M19.0434 11.8049C20.2434 13.1761 18.7287 14.4103 18.7287 14.4103C18.7287 14.4103 21.7734 12.8489 20.3748 10.8942C19.069 9.07108 18.0676 8.16523 23.4894 5.04297C23.4894 5.04297 14.9803 7.1559 19.0434 11.806" fill="#E76F00"/>
<path d="M25.4798 21.0962C25.4798 21.0962 26.1828 21.6715 24.7058 22.1169C21.8967 22.962 13.0139 23.2172 10.5463 22.1505C9.6594 21.7669 11.3225 21.2354 11.8461 21.1211C12.1266 21.0528 12.4148 21.0206 12.7036 21.0252C11.7169 20.335 6.32776 22.3796 9.96594 22.9664C19.8883 24.5646 28.0538 22.2469 25.4798 21.0934M15.0812 13.592C15.0812 13.592 10.5632 14.6577 13.4814 15.045C15.4716 15.1985 17.4715 15.1773 19.4579 14.9817C21.3278 14.8251 23.2052 14.4941 23.2052 14.4941C22.8106 14.6645 22.4306 14.8665 22.069 15.0981C17.4807 16.2966 8.61703 15.7391 11.1692 14.513C12.3811 13.9014 13.7219 13.5857 15.0812 13.592ZM23.1867 18.092C27.8508 15.6849 25.6958 13.371 24.1892 13.683C24.0079 13.7165 23.8295 13.7641 23.6558 13.8255C23.7546 13.686 23.8936 13.5795 24.0545 13.5199C27.0321 12.4803 29.3225 16.587 23.0934 18.2134C23.1322 18.1793 23.1635 18.1381 23.1867 18.092Z" fill="#5382A1"/>
<path d="M20.374 0.000541738C20.374 0.000541738 22.9551 2.5664 17.9244 6.51324C13.888 9.67885 17.0042 11.484 17.9244 13.5466C15.5686 11.4337 13.8395 9.57699 14.9997 7.8471C16.702 5.30779 21.418 4.07687 20.3762 0" fill="#E76F00"/>
<path d="M15.5398 24.6135C20.0168 24.8979 26.8918 24.4553 27.0543 22.3516C27.0543 22.3516 26.7412 23.1491 23.3545 23.7824C19.6098 24.4206 15.7881 24.4791 12.0254 23.9558C12.0254 23.9558 12.597 24.426 15.5398 24.6135Z" fill="#5382A1"/>
<path d="M14.8063 32.6546C14.4639 32.9865 14.0146 33.1877 13.5376 33.223C13.4181 33.2341 13.2977 33.2187 13.185 33.1779C13.0723 33.1371 12.9702 33.072 12.886 32.9871C12.8017 32.9023 12.7376 32.7999 12.6981 32.6874C12.6586 32.5749 12.6449 32.4551 12.6578 32.3366C12.6578 31.7461 12.9883 31.3148 14.3154 31.3148H14.8063V32.6546ZM15.9714 33.9609V29.9181C15.9714 28.8855 15.3785 28.2039 13.9488 28.2039C13.204 28.2076 12.4681 28.3663 11.7888 28.6699L11.9601 29.3855C12.4932 29.1823 13.0573 29.0709 13.6281 29.0561C14.4518 29.0561 14.8063 29.3856 14.8063 30.0666V30.5775H14.395C12.3938 30.5775 11.491 31.349 11.491 32.5073C11.491 33.5069 12.0861 34.0746 13.2059 34.0746C13.8643 34.0634 14.4937 33.8032 14.9656 33.347L15.0567 33.9609H15.9714ZM19.8605 33.9609H18.4074L16.6581 28.3063H17.9274L19.0128 31.7802L19.2539 32.8253C19.7931 31.3636 20.1726 29.8486 20.3858 28.3063H21.6207C21.2821 30.2587 20.6901 32.1593 19.8605 33.9609ZM25.4367 32.6546C25.0936 32.9864 24.6438 33.1876 24.1663 33.223C24.0469 33.234 23.9265 33.2185 23.8139 33.1777C23.7012 33.1369 23.5991 33.0717 23.5149 32.9869C23.4307 32.9021 23.3665 32.7997 23.327 32.6873C23.2875 32.5748 23.2737 32.455 23.2865 32.3366C23.2865 31.7461 23.6181 31.3148 24.9447 31.3148H25.4356V32.6546M26.6007 33.9609V29.9181C26.6007 28.8855 26.0061 28.2039 24.5781 28.2039C23.8331 28.2075 23.097 28.3662 22.4176 28.6699L22.5888 29.3855C23.1223 29.1823 23.6868 29.0709 24.2579 29.0561C25.081 29.0561 25.4356 29.3856 25.4356 30.0666V30.5775H25.0238C23.0219 30.5775 22.1198 31.349 22.1198 32.5073C22.1198 33.5069 22.7143 34.0746 23.8341 34.0746C24.4928 34.0634 25.1225 33.8032 25.5948 33.347L25.6865 33.9609H26.6007ZM10.2125 34.9209C9.84806 35.4185 9.34025 35.7946 8.75612 35.9996L8.18066 35.3272C8.60176 35.1185 8.9523 34.7922 9.18921 34.3883C9.38784 33.8663 9.46251 33.3058 9.40739 32.7505V26.2969H10.6456V32.6638C10.6456 33.9202 10.5447 34.4273 10.2125 34.9225" fill="#E76F00"/>
</g>
<defs>
<clipPath id="clip0_5057_29505">
<rect width="36" height="36" fill="white"/>
</clipPath>
</defs>
</svg>
