<svg width="96" height="96" xmlns="http://www.w3.org/2000/svg" xmlns:xlink="http://www.w3.org/1999/xlink" xml:space="preserve" overflow="hidden"><g transform="translate(-1219 -477)"><path d="M1282 508.28 1264 491.14 1264 491.14 1228 525.39 1231.89 528.71 1264 498.21 1264 498.21 1280.71 514.09C1281.01 512.128 1281.45 510.187 1282 508.28Z" fill="#E46C0A"/><path d="M1298 552 1298 531.81C1304 530.73 1308.5 524.91 1308.5 516.62 1308.5 507.42 1299 488.4 1296 488.4 1293 488.4 1283.5 507.4 1283.5 516.62 1283.5 524.91 1288.05 530.73 1294 531.81L1294 552 1290 552 1290 533.66C1284.7 531.17 1281 525.4 1280.56 518.2L1264 503 1238 526.87 1238 552 1232 552 1232 550.51 1233.69 550.51C1234.39 550.504 1234.99 550.006 1235.12 549.32L1235.12 549.32C1235.41 548.055 1236.03 546.891 1236.92 545.95 1237.04 545.833 1237.05 545.636 1236.93 545.512 1236.85 545.424 1236.72 545.392 1236.61 545.43 1234.86 545.838 1233.27 546.728 1232 548L1232 545.2C1236.46 544.46 1234 538.65 1234 538.65 1233.92 538.501 1233.73 538.448 1233.58 538.532 1233.53 538.56 1233.49 538.601 1233.46 538.65L1232.39 540.47 1231.32 538.65C1231.26 538.552 1231.15 538.491 1231.04 538.49 1230.93 538.494 1230.83 538.555 1230.77 538.65L1229.7 540.47 1228.59 538.65C1228.5 538.498 1228.3 538.448 1228.15 538.539 1228.11 538.566 1228.07 538.604 1228.04 538.65 1228.04 538.65 1225.55 544.45 1230.04 545.2L1230.04 547.94C1228.77 546.694 1227.18 545.822 1225.45 545.42 1225.29 545.366 1225.11 545.454 1225.06 545.617 1225.02 545.731 1225.05 545.857 1225.14 545.94 1226.04 546.879 1226.66 548.044 1226.94 549.31L1226.94 549.31C1227.07 549.996 1227.67 550.494 1228.37 550.5L1230 550.5 1230 552 1222 552 1222 558 1311 558 1311 552ZM1254 541 1244 541 1244 531 1254 531ZM1269 552 1259 552 1259 531 1269 531ZM1284 541 1274 541 1274 531 1284 531Z" fill="#E46C0A"/></g></svg>